Coordinates
version=1
nRows=7
nColumns=40
inDegrees=yes
endheader
time	pelvis_tilt	pelvis_list	pelvis_rotation	pelvis_tx	pelvis_ty	pelvis_tz	hip_flexion_r	hip_adduction_r	hip_rotation_r	knee_angle_r	knee_angle_r_beta	ankle_angle_r	subtalar_angle_r	mtp_angle_r	hip_flexion_l	hip_adduction_l	hip_rotation_l	knee_angle_l	knee_angle_l_beta	ankle_angle_l	subtalar_angle_l	mtp_angle_l	lumbar_extension	lumbar_bending	lumbar_rotation	arm_flex_r	arm_add_r	arm_rot_r	elbow_flex_r	pro_sup_r	wrist_flex_r	wrist_dev_r	arm_flex_l	arm_add_l	arm_rot_l	elbow_flex_l	pro_sup_l	wrist_flex_l	wrist_dev_l
1760625433.83394098	     11.26083654	     -1.27910523	      0.49837352	      0.13770656	      0.85226263	      0.00287730	     80.00000000	     -7.00000000	      0.00000000	     80.00000000	      1.39626340	      0.00000000	      0.00000000	      0.00000000	     80.00000000	     -7.00000000	      0.00000000	     80.00000000	      1.39626340	      0.00000000	      0.00000000	      0.00000000	    -19.69718067	     -1.72339800	      2.79698924	     -5.33057946	    -11.94680162	      3.68068405	    115.34912492	    155.08034442	    -18.87421609	     22.34247879	     -7.15282200	    -10.71227933	     -0.07009274	    120.90726299	    172.90877369	     11.91448376	     30.79688493
1760625433.84394097	     11.25953677	     -1.27986985	      0.49925978	      0.13782313	      0.85227517	      0.00288676	     80.00000000	     -7.00000000	      0.00000000	     80.00000000	      1.39626340	      0.00000000	      0.00000000	      0.00000000	     80.00000000	     -7.00000000	      0.00000000	     80.00000000	      1.39626340	      0.00000000	      0.00000000	      0.00000000	    -19.69740444	     -1.72395120	      2.79696462	     -5.32932203	    -11.94761302	      3.68050582	    115.34965049	    155.08047205	    -18.87381148	     22.34251522	     -7.15261476	    -10.71300755	     -0.07027342	    120.90633209	    172.90888718	     11.91466638	     30.79678383
1760625433.85394096	     11.26977611	     -1.29125955	      0.51201134	      0.13805491	      0.85225602	      0.00299606	     80.00000000	     -7.00000000	      0.00000000	     80.00000000	      1.39626340	      0.00000000	      0.00000000	      0.00000000	     80.00000000	     -7.00000000	      0.00000000	     80.00000000	      1.39626340	      0.00000000	      0.00000000	      0.00000000	    -19.67520143	     -1.73216897	      2.79507633	     -5.29697003	    -11.96666148	      3.67598569	    115.36581996	    155.08235452	    -18.86759290	     22.34248638	     -7.14727095	    -10.73462577	     -0.07603135	    120.88521580	    172.91008315	     11.91779275	     30.79512010
1760625433.86394095	     11.26723386	     -1.29160867	      0.51228147	      0.13822639	      0.85225747	      0.00299222	     80.00000000	     -7.00000000	      0.00000000	     80.00000000	      1.39626340	      0.00000000	      0.00000000	      0.00000000	     80.00000000	     -7.00000000	      0.00000000	     80.00000000	      1.39626340	      0.00000000	      0.00000000	      0.00000000	    -19.67621568	     -1.73217706	      2.79475504	     -5.29347370	    -11.96824966	      3.67551582	    115.36698148	    155.08244182	    -18.86717731	     22.34245864	     -7.14582232	    -10.73658624	     -0.07663381	    120.88330302	    172.91008691	     11.91800187	     30.79498422
1760625433.87394094	     11.28371109	     -1.49233767	      0.78837611	      0.13793865	      0.85245022	      0.00231130	     80.00000000	     -7.00000000	      0.00000000	     80.00000000	      1.39626340	      0.00000000	      0.00000000	      0.00000000	     80.00000000	     -7.00000000	      0.00000000	     80.00000000	      1.39626340	      0.00000000	      0.00000000	      0.00000000	    -19.70323402	     -1.38195025	      2.60638701	     -5.05166974	    -12.29708034	      3.87058775	    115.36379148	    155.14509761	    -18.67512801	     22.35235593	     -6.92553021	    -10.88830326	      0.08927716	    120.62787670	    172.96088977	     11.97322228	     30.71950042
1760625433.88394094	     11.31184689	     -1.50504913	      0.79084433	      0.13841830	      0.85250438	      0.00237134	     80.00000000	     -7.00000000	      0.00000000	     80.00000000	      1.39626340	      0.00000000	      0.00000000	      0.00000000	     80.00000000	     -7.00000000	      0.00000000	     80.00000000	      1.39626340	      0.00000000	      0.00000000	      0.00000000	    -19.66960224	     -1.38144668	      2.60534641	     -4.99544845	    -12.30524206	      3.85422552	    115.39236734	    155.14720363	    -18.66952961	     22.35256884	     -6.88561161	    -10.90436262	      0.06423901	    120.63083280	    172.96175434	     11.97281717	     30.71770717
1760625433.89394093	     11.80892929	     -1.25066756	      0.45756148	      0.13845660	      0.85364312	      0.00295824	     80.00000000	     -7.00000000	      0.00000000	     80.00000000	      1.39626340	      0.00000000	      0.00000000	      0.00000000	     80.00000000	     -7.00000000	      0.00000000	     80.00000000	      1.39626340	      0.00000000	      0.00000000	      0.00000000	    -20.27935127	     -1.76047106	      2.80892173	     -4.73603191	    -12.36096197	      3.86799961	    115.46956139	    155.38178290	    -18.07155032	     22.45877925	     -6.65716250	    -11.07068798	     -0.00823795	    120.62818399	    173.18478565	     11.98663458	     30.45237866
